<svg width="13" height="23" viewBox="0 0 13 23" fill="none" xmlns="http://www.w3.org/2000/svg">
<path d="M6.8186 9.82973C3.99411 9.09561 3.08579 8.33661 3.08579 7.15455C3.08579 5.7983 4.3425 4.85265 6.44532 4.85265C8.66012 4.85265 9.48133 5.91028 9.55599 7.46562H12.3058C12.2187 5.32547 10.9122 3.35953 8.31172 2.72495V0H4.57891V2.68762C2.16503 3.21022 0.223968 4.778 0.223968 7.17944C0.223968 10.0537 2.60052 11.4846 6.07204 12.3183C9.18271 13.0648 9.80484 14.1598 9.80484 15.317C9.80484 16.1755 9.19515 17.5442 6.44532 17.5442C3.88212 17.5442 2.87426 16.3995 2.73739 14.9312H0C0.149312 17.6562 2.18991 19.1866 4.57891 19.6968V22.3969H8.31172V19.7217C10.738 19.2613 12.6667 17.8553 12.6667 15.3045C12.6667 11.7708 9.64309 10.5638 6.8186 9.82973Z" fill="#F1F2F7"/>
</svg>
