<svg width="14" height="8" viewBox="0 0 14 8" fill="none" xmlns="http://www.w3.org/2000/svg">
<path d="M14 1.33333C14 2.06667 13.4273 2.66667 12.7273 2.66667C12.6127 2.66667 12.5045 2.65333 12.4027 2.62L10.1373 4.98667C10.1691 5.09333 10.1818 5.21333 10.1818 5.33333C10.1818 6.06667 9.60909 6.66667 8.90909 6.66667C8.20909 6.66667 7.63636 6.06667 7.63636 5.33333C7.63636 5.21333 7.64909 5.09333 7.68091 4.98667L6.05818 3.28667C5.95636 3.32 5.84182 3.33333 5.72727 3.33333C5.61273 3.33333 5.49818 3.32 5.39636 3.28667L2.50091 6.32667C2.53273 6.43333 2.54545 6.54667 2.54545 6.66667C2.54545 7.4 1.97273 8 1.27273 8C0.572727 8 0 7.4 0 6.66667C0 5.93333 0.572727 5.33333 1.27273 5.33333C1.38727 5.33333 1.49545 5.34667 1.59727 5.38L4.49909 2.34667C4.46727 2.24 4.45455 2.12 4.45455 2C4.45455 1.26667 5.02727 0.666667 5.72727 0.666667C6.42727 0.666667 7 1.26667 7 2C7 2.12 6.98727 2.24 6.95545 2.34667L8.57818 4.04667C8.68 4.01333 8.79455 4 8.90909 4C9.02364 4 9.13818 4.01333 9.24 4.04667L11.4991 1.67333C11.4673 1.56667 11.4545 1.45333 11.4545 1.33333C11.4545 0.6 12.0273 0 12.7273 0C13.4273 0 14 0.6 14 1.33333Z" fill="black"/>
</svg>
